<svg xmlns="http://www.w3.org/2000/svg" viewBox="0 0 800 550" width="800" height="550" role="img" aria-label="Diş kliniği görseli">
  <defs>
    <linearGradient id="p4bg" x1="0" y1="0" x2="1" y2="1"><stop offset="0" stop-color="#163D6E"/><stop offset="1" stop-color="#0F2647"/></linearGradient>
    <radialGradient id="p4g" cx="0.5" cy="0.42" r="0.72"><stop offset="0" stop-color="#2A4E82" stop-opacity="0.8"/><stop offset="1" stop-color="#0F2647" stop-opacity="0"/></radialGradient>
    <linearGradient id="p4gold" x1="0" y1="0" x2="0" y2="1"><stop offset="0" stop-color="#E8C56A"/><stop offset="1" stop-color="#D4A843"/></linearGradient>
  </defs>
  <rect width="800" height="550" fill="url(#p4bg)"/>
  <rect width="800" height="550" fill="url(#p4g)"/>
  <circle cx="140" cy="440" r="150" fill="#fff" opacity="0.04"/>
  <circle cx="680" cy="110" r="130" fill="#fff" opacity="0.03"/>
  <!-- Diş -->
  <g transform="translate(310 285) scale(1.75)">
    <path d="M0 -72 C -46 -72 -84 -44 -84 2 C -84 40 -72 70 -58 92 C -49 106 -35 108 -29 92 C -22 74 -14 66 0 66 C 14 66 22 74 29 92 C 35 108 49 106 58 92 C 72 70 84 40 84 2 C 84 -44 46 -72 0 -72 Z" fill="#FFFFFF"/>
    <path d="M-50 -58 C -38 -76 -12 -78 6 -68" fill="none" stroke="#DCE4F0" stroke-width="7" stroke-linecap="round" opacity="0.85"/>
  </g>
  <!-- Sağlık artı işareti -->
  <g transform="translate(540 275)">
    <circle r="72" fill="#22467C" stroke="#345C93" stroke-width="3"/>
    <g fill="url(#p4gold)"><rect x="-14" y="-42" width="28" height="84" rx="8"/><rect x="-42" y="-14" width="84" height="28" rx="8"/></g>
  </g>
</svg>
